<svg xmlns="http://www.w3.org/2000/svg" width="121" height="59" fill="none"><defs/><path fill="#F2F2F2" d="M11.344 23l2.112-9.216H6.608L4.496 23H.08L5.104 1.24H9.52L7.504 9.944h6.848l2.016-8.704h4.416L15.76 23h-4.416zm13.543-5.024c0 .533.214.96.64 1.28.448.32 1.003.48 1.665.48 1.471 0 2.976-.107 4.511-.32l.832-.096-.48 3.168c-1.983.597-3.946.896-5.887.896-1.942 0-3.36-.437-4.256-1.312-.875-.875-1.313-2.155-1.313-3.84s.171-3.19.512-4.512c.342-1.323.843-2.517 1.505-3.584a7.31 7.31 0 012.752-2.528c1.173-.64 2.506-.96 4-.96 3.733 0 5.6 1.59 5.6 4.768 0 2.027-.683 3.424-2.049 4.192-1.365.768-3.637 1.152-6.815 1.152h-1.12c-.065.256-.097.661-.097 1.216zm1.889-4.384c1.471 0 2.495-.16 3.072-.48.597-.32.896-.864.896-1.632 0-.917-.534-1.376-1.6-1.376-1.9 0-3.126 1.163-3.68 3.488h1.312zm13.842 9.792c-1.557 0-2.698-.523-3.424-1.568-.725-1.067-1.088-2.485-1.088-4.256 0-2.453.619-4.81 1.856-7.072a7.809 7.809 0 012.56-2.784c1.088-.725 2.326-1.088 3.712-1.088 1.472 0 3.648.256 6.528.768l1.472.288-2.4 10.336-.864 4.896-4.256.16c.192-1.301.33-2.133.416-2.496-.874 1.173-1.898 2.005-3.072 2.496-.49.213-.97.32-1.44.32zm3.744-13.12c-.81 0-1.525.416-2.144 1.248-1.173 1.579-1.76 3.595-1.76 6.048 0 .747.118 1.301.352 1.664.235.341.598.512 1.088.512.512 0 1.078-.235 1.696-.704.64-.47 1.174-.939 1.6-1.408l.64-.736 1.472-6.176c-1.408-.299-2.39-.448-2.944-.448zm13.578 13.12c-1.514 0-2.666-.49-3.456-1.472-.767-.981-1.151-2.379-1.151-4.192 0-1.813.288-3.541.864-5.184.597-1.643 1.525-3.03 2.783-4.16 1.26-1.152 2.731-1.728 4.417-1.728.725 0 1.791.17 3.2.512l.64.16L66.805.6h4.287L65.91 23h-4.16l.287-1.664c-.426.49-1.045.96-1.855 1.408-.811.427-1.558.64-2.24.64zm6.529-12.64c-1.238-.299-2.251-.448-3.04-.448-.769 0-1.451.427-2.049 1.28-.576.832-1.002 1.803-1.28 2.912a13.188 13.188 0 00-.416 3.2c0 1.365.544 2.048 1.633 2.048.34 0 .81-.192 1.407-.576a11.083 11.083 0 001.569-1.152l.64-.576 1.536-6.688zM26.079 29.24c2.303 0 4 .49 5.087 1.472 1.088.96 1.632 2.485 1.632 4.576 0 2.09-.458 3.84-1.376 5.248-.917 1.408-2.08 2.39-3.488 2.944l1.76 7.52H25.28l-1.44-6.912h-3.04L19.198 51h-4.417l5.024-21.76h6.272zM24.51 40.312c1.152 0 2.06-.459 2.72-1.376.683-.917 1.024-1.93 1.024-3.04s-.18-1.867-.544-2.272c-.362-.405-.992-.608-1.887-.608h-2.465l-1.695 7.296h2.848zm13.268 5.664c0 .533.213.96.64 1.28.447.32 1.002.48 1.663.48 1.472 0 2.976-.107 4.512-.32l.832-.096-.48 3.168c-1.983.597-3.946.896-5.888.896-1.94 0-3.36-.437-4.256-1.312-.874-.875-1.312-2.155-1.312-3.84s.171-3.19.513-4.512c.34-1.323.842-2.517 1.503-3.584a7.31 7.31 0 012.752-2.528c1.174-.64 2.507-.96 4-.96 3.734 0 5.6 1.59 5.6 4.768 0 2.027-.682 3.424-2.047 4.192-1.366.768-3.638 1.152-6.817 1.152h-1.12c-.063.256-.095.661-.095 1.216zm1.888-4.384c1.472 0 2.495-.16 3.072-.48.597-.32.895-.864.895-1.632 0-.917-.533-1.376-1.6-1.376-1.898 0-3.125 1.163-3.68 3.488h1.313zm13.842 9.792c-1.557 0-2.698-.523-3.424-1.568-.725-1.067-1.088-2.485-1.088-4.256 0-2.453.619-4.81 1.856-7.072a7.808 7.808 0 012.56-2.784c1.088-.725 2.326-1.088 3.712-1.088 1.472 0 3.648.256 6.528.768l1.472.288-2.4 10.336-.864 4.896-4.256.16c.192-1.301.33-2.133.416-2.496-.874 1.173-1.898 2.005-3.072 2.496-.49.213-.97.32-1.44.32zm3.744-13.12c-.81 0-1.525.416-2.144 1.248-1.173 1.579-1.76 3.595-1.76 6.048 0 .747.118 1.301.352 1.664.235.341.598.512 1.088.512.512 0 1.078-.235 1.696-.704.64-.47 1.174-.939 1.6-1.408l.64-.736 1.472-6.176c-1.408-.299-2.39-.448-2.944-.448zm17.386-3.648c1.28 0 2.635.256 4.064.768l.704.224-1.088 3.136c-1.642-.277-2.933-.416-3.871-.416-1.216 0-2.155.672-2.817 2.016-.66 1.323-.992 2.88-.992 4.672 0 1.77.811 2.656 2.432 2.656l3.425-.256-.353 3.168c-1.557.533-3.114.8-4.671.8-1.558 0-2.817-.49-3.776-1.472-.94-.981-1.408-2.347-1.408-4.096 0-3.264.714-5.941 2.143-8.032 1.451-2.112 3.52-3.168 6.208-3.168zM78.837 51l3.68-16h4.288l-3.68 16h-4.288zm4.032-17.664l1.024-4.384h4.32l-.992 4.384h-4.352zm15.718 1.28c2.602 0 3.903 1.504 3.903 4.512 0 .768-.224 2.112-.672 4.032L100.025 51h-4.288l1.729-7.52c.384-1.6.576-2.71.576-3.328 0-.64-.086-1.099-.257-1.376-.149-.299-.437-.448-.864-.448-.746 0-1.653.48-2.72 1.44l-.511.48L91.224 51h-4.287l3.68-16h4.096l-.192 1.568c.49-.49 1.13-.939 1.92-1.344.81-.405 1.525-.608 2.144-.608zm10.55 23.744c-4.63 0-6.944-1.461-6.944-4.384 0-1.003.352-1.835 1.056-2.496.725-.64 1.674-1.248 2.848-1.824-.427-.427-.64-.917-.64-1.472 0-.576.16-1.12.48-1.632.32-.512.64-.917.96-1.216l.48-.448c-1.451-.853-2.176-2.187-2.176-4 0-1.813.608-3.307 1.824-4.48 1.216-1.195 2.816-1.792 4.8-1.792.917 0 2.005.15 3.264.448l.608.128 4.672-.192-.8 3.456h-1.856c.085.47.128 1.013.128 1.632 0 1.643-.64 3.04-1.92 4.192-1.259 1.13-2.848 1.696-4.768 1.696l-1.376-.16c-.32.427-.48.79-.48 1.088 0 .299.202.512.608.64.405.128 1.205.277 2.4.448 3.029.448 4.544 1.792 4.544 4.032 0 1.899-.694 3.424-2.08 4.576-1.366 1.173-3.243 1.76-5.632 1.76zm-1.216-7.552a5.578 5.578 0 00-1.248.96c-.384.427-.576.864-.576 1.312 0 .448.234.843.704 1.184.469.341 1.216.512 2.24.512 2.517 0 3.776-.747 3.776-2.24a.82.82 0 00-.32-.672 1.568 1.568 0 00-.672-.352c-.256-.064-.939-.192-2.048-.384-1.088-.17-1.707-.277-1.856-.32zm3.456-8.32c.746 0 1.354-.245 1.824-.736.469-.512.704-1.13.704-1.856 0-1.195-.747-1.792-2.24-1.792-.747 0-1.355.245-1.824.736-.47.49-.704 1.11-.704 1.856 0 1.195.746 1.792 2.24 1.792z"/></svg>